%TF.GenerationSoftware,KiCad,Pcbnew,9.0.7*%
%TF.CreationDate,2026-03-06T01:41:06+03:00*%
%TF.ProjectId,akilli_guvenlik_kasasi,616b696c-6c69-45f6-9775-76656e6c696b,rev?*%
%TF.SameCoordinates,Original*%
%TF.FileFunction,Copper,L2,Bot*%
%TF.FilePolarity,Positive*%
%FSLAX46Y46*%
G04 Gerber Fmt 4.6, Leading zero omitted, Abs format (unit mm)*
G04 Created by KiCad (PCBNEW 9.0.7) date 2026-03-06 01:41:06*
%MOMM*%
%LPD*%
G01*
G04 APERTURE LIST*
G04 Aperture macros list*
%AMRoundRect*
0 Rectangle with rounded corners*
0 $1 Rounding radius*
0 $2 $3 $4 $5 $6 $7 $8 $9 X,Y pos of 4 corners*
0 Add a 4 corners polygon primitive as box body*
4,1,4,$2,$3,$4,$5,$6,$7,$8,$9,$2,$3,0*
0 Add four circle primitives for the rounded corners*
1,1,$1+$1,$2,$3*
1,1,$1+$1,$4,$5*
1,1,$1+$1,$6,$7*
1,1,$1+$1,$8,$9*
0 Add four rect primitives between the rounded corners*
20,1,$1+$1,$2,$3,$4,$5,0*
20,1,$1+$1,$4,$5,$6,$7,0*
20,1,$1+$1,$6,$7,$8,$9,0*
20,1,$1+$1,$8,$9,$2,$3,0*%
G04 Aperture macros list end*
%TA.AperFunction,ComponentPad*%
%ADD10RoundRect,0.250000X1.050000X-1.050000X1.050000X1.050000X-1.050000X1.050000X-1.050000X-1.050000X0*%
%TD*%
%TA.AperFunction,ComponentPad*%
%ADD11C,2.600000*%
%TD*%
%TA.AperFunction,ComponentPad*%
%ADD12R,1.700000X1.700000*%
%TD*%
%TA.AperFunction,ComponentPad*%
%ADD13C,1.600000*%
%TD*%
%TA.AperFunction,ComponentPad*%
%ADD14C,1.700000*%
%TD*%
%TA.AperFunction,ComponentPad*%
%ADD15RoundRect,0.250000X0.725000X-0.600000X0.725000X0.600000X-0.725000X0.600000X-0.725000X-0.600000X0*%
%TD*%
%TA.AperFunction,ComponentPad*%
%ADD16O,1.950000X1.700000*%
%TD*%
%TA.AperFunction,ComponentPad*%
%ADD17RoundRect,0.250000X0.550000X0.550000X-0.550000X0.550000X-0.550000X-0.550000X0.550000X-0.550000X0*%
%TD*%
%TA.AperFunction,ComponentPad*%
%ADD18C,6.400000*%
%TD*%
%TA.AperFunction,ComponentPad*%
%ADD19RoundRect,0.250000X-1.050000X1.050000X-1.050000X-1.050000X1.050000X-1.050000X1.050000X1.050000X0*%
%TD*%
%TA.AperFunction,Conductor*%
%ADD20C,0.900000*%
%TD*%
G04 APERTURE END LIST*
D10*
%TO.P,J4,1,Pin_1*%
%TO.N,/+12V*%
X203200000Y-129540000D03*
D11*
%TO.P,J4,2,Pin_2*%
%TO.N,GND*%
X203200000Y-124460000D03*
%TD*%
D12*
%TO.P,J6,1,Pin_1*%
%TO.N,/+12V*%
X193040000Y-88900000D03*
%TD*%
D13*
%TO.P,R1,1*%
%TO.N,/MP3_TX*%
X142240000Y-86360000D03*
%TO.P,R1,2*%
X142240000Y-78740000D03*
%TD*%
D12*
%TO.P,J1,1,Pin_1*%
%TO.N,unconnected-(J1-Pin_1-Pad1)*%
X182880000Y-109220000D03*
D14*
%TO.P,J1,2,Pin_2*%
%TO.N,unconnected-(J1-Pin_2-Pad2)*%
X182880000Y-111760000D03*
%TO.P,J1,3,Pin_3*%
%TO.N,unconnected-(J1-Pin_3-Pad3)*%
X182880000Y-114300000D03*
%TO.P,J1,4,Pin_4*%
%TO.N,GND*%
X182880000Y-116840000D03*
%TO.P,J1,5,Pin_5*%
%TO.N,unconnected-(J1-Pin_5-Pad5)*%
X182880000Y-119380000D03*
%TO.P,J1,6,Pin_6*%
%TO.N,unconnected-(J1-Pin_6-Pad6)*%
X182880000Y-121920000D03*
%TO.P,J1,7,Pin_7*%
%TO.N,unconnected-(J1-Pin_7-Pad7)*%
X182880000Y-124460000D03*
%TO.P,J1,8,Pin_8*%
%TO.N,GND*%
X182880000Y-127000000D03*
%TD*%
D15*
%TO.P,J5,1,Pin_1*%
%TO.N,/+5V*%
X119380000Y-139500000D03*
D16*
%TO.P,J5,2,Pin_2*%
%TO.N,GND*%
X119380000Y-137000000D03*
%TO.P,J5,3,Pin_3*%
%TO.N,/PARMAK_RX*%
X119380000Y-134500000D03*
%TO.P,J5,4,Pin_4*%
%TO.N,/PARMAK_TX*%
X119380000Y-132000000D03*
%TO.P,J5,5,Pin_5*%
%TO.N,unconnected-(J5-Pin_5-Pad5)*%
X119380000Y-129500000D03*
%TO.P,J5,6,Pin_6*%
%TO.N,unconnected-(J5-Pin_6-Pad6)*%
X119380000Y-127000000D03*
%TD*%
D17*
%TO.P,C1,1*%
%TO.N,/+5V*%
X135580000Y-109220000D03*
D13*
%TO.P,C1,2*%
%TO.N,GND*%
X132080000Y-109220000D03*
%TD*%
D12*
%TO.P,J2,1,Pin_1*%
%TO.N,/+5V*%
X160020000Y-109220000D03*
D14*
%TO.P,J2,2,Pin_2*%
%TO.N,GND*%
X160020000Y-111760000D03*
%TO.P,J2,3,Pin_3*%
%TO.N,/KILIT_TETIK*%
X160020000Y-114300000D03*
%TO.P,J2,4,Pin_4*%
%TO.N,/PARMAK_RX*%
X160020000Y-116840000D03*
%TO.P,J2,5,Pin_5*%
%TO.N,/MP3_RX*%
X160020000Y-119380000D03*
%TO.P,J2,6,Pin_6*%
%TO.N,/PARMAK_TX*%
X160020000Y-121920000D03*
%TO.P,J2,7,Pin_7*%
%TO.N,/MP3_TX*%
X160020000Y-124460000D03*
%TO.P,J2,8,Pin_8*%
%TO.N,unconnected-(J2-Pin_8-Pad8)*%
X160020000Y-127000000D03*
%TD*%
D12*
%TO.P,J8,1,Pin_1*%
%TO.N,/+5V*%
X152400000Y-88900000D03*
%TD*%
D18*
%TO.P,H1,1,1*%
%TO.N,GND*%
X96520000Y-71120000D03*
%TD*%
D19*
%TO.P,J9,1,Pin_1*%
%TO.N,/HOPARLOR_B*%
X96520000Y-100360000D03*
D11*
%TO.P,J9,2,Pin_2*%
%TO.N,/HOPARLOR_A*%
X96520000Y-105440000D03*
%TD*%
D12*
%TO.P,J11,1,Pin_1*%
%TO.N,/+5V*%
X111785000Y-74945000D03*
D14*
%TO.P,J11,2,Pin_2*%
%TO.N,/MP3_TX*%
X111785000Y-77485000D03*
%TO.P,J11,3,Pin_3*%
%TO.N,/MP3_RX*%
X111785000Y-80025000D03*
%TO.P,J11,4,Pin_4*%
%TO.N,unconnected-(J11-Pin_4-Pad4)*%
X111785000Y-82565000D03*
%TO.P,J11,5,Pin_5*%
%TO.N,unconnected-(J11-Pin_5-Pad5)*%
X111785000Y-85105000D03*
%TO.P,J11,6,Pin_6*%
%TO.N,unconnected-(J11-Pin_6-Pad6)*%
X111785000Y-87645000D03*
%TO.P,J11,7,Pin_7*%
%TO.N,GND*%
X111785000Y-90185000D03*
%TO.P,J11,8,Pin_8*%
%TO.N,unconnected-(J11-Pin_8-Pad8)*%
X111785000Y-92725000D03*
%TD*%
D12*
%TO.P,J12,1,Pin_1*%
%TO.N,/HOPARLOR_A*%
X129565000Y-74945000D03*
D14*
%TO.P,J12,2,Pin_2*%
%TO.N,/HOPARLOR_B*%
X129565000Y-77485000D03*
%TO.P,J12,3,Pin_3*%
%TO.N,unconnected-(J12-Pin_3-Pad3)*%
X129565000Y-80025000D03*
%TO.P,J12,4,Pin_4*%
%TO.N,unconnected-(J12-Pin_4-Pad4)*%
X129565000Y-82565000D03*
%TO.P,J12,5,Pin_5*%
%TO.N,unconnected-(J12-Pin_5-Pad5)*%
X129565000Y-85105000D03*
%TO.P,J12,6,Pin_6*%
%TO.N,unconnected-(J12-Pin_6-Pad6)*%
X129565000Y-87645000D03*
%TO.P,J12,7,Pin_7*%
%TO.N,GND*%
X129565000Y-90185000D03*
%TO.P,J12,8,Pin_8*%
%TO.N,unconnected-(J12-Pin_8-Pad8)*%
X129565000Y-92725000D03*
%TD*%
D18*
%TO.P,H3,1,1*%
%TO.N,GND*%
X205740000Y-139700000D03*
%TD*%
%TO.P,H2,1,1*%
%TO.N,GND*%
X96520000Y-139700000D03*
%TD*%
D12*
%TO.P,J3,1,Pin_1*%
%TO.N,/+5V*%
X200660000Y-109220000D03*
D14*
%TO.P,J3,2,Pin_2*%
%TO.N,GND*%
X200660000Y-106680000D03*
%TO.P,J3,3,Pin_3*%
%TO.N,/KILIT_TETIK*%
X200660000Y-104140000D03*
%TD*%
D12*
%TO.P,J10,1,Pin_1*%
%TO.N,GND*%
X152400000Y-71120000D03*
%TD*%
D18*
%TO.P,H4,1,1*%
%TO.N,GND*%
X205740000Y-71120000D03*
%TD*%
D12*
%TO.P,J7,1,Pin_1*%
%TO.N,GND*%
X193040000Y-71120000D03*
%TD*%
D20*
%TO.N,GND*%
X149860000Y-83820000D02*
X149860000Y-81280000D01*
X193040000Y-111760000D02*
X198120000Y-106680000D01*
X175260000Y-127000000D02*
X182880000Y-127000000D01*
X203200000Y-124460000D02*
X193040000Y-114300000D01*
X183388288Y-103378288D02*
X183896577Y-102870000D01*
X195580000Y-132080000D02*
X165100000Y-132080000D01*
X160020000Y-111760000D02*
X167513289Y-119253288D01*
X171450000Y-123190000D02*
X175260000Y-127000000D01*
X147320000Y-78740000D02*
X144780000Y-78740000D01*
X182880000Y-116840000D02*
X180466712Y-119253288D01*
X165100000Y-132080000D02*
X171450000Y-125730000D01*
X138740000Y-117640000D02*
X119380000Y-137000000D01*
X172466577Y-119253288D02*
X167513289Y-119253288D01*
X133360000Y-93980000D02*
X129565000Y-90185000D01*
X144780000Y-78740000D02*
X152400000Y-71120000D01*
X134620000Y-93980000D02*
X133360000Y-93980000D01*
X129565000Y-90185000D02*
X111785000Y-90185000D01*
X198120000Y-106680000D02*
X200660000Y-106680000D01*
X203200000Y-124460000D02*
X195580000Y-132080000D01*
X138740000Y-114300000D02*
X138740000Y-117640000D01*
X138740000Y-114300000D02*
X138740000Y-98100000D01*
X184150000Y-85090000D02*
X175260000Y-76200000D01*
X137160000Y-96520000D02*
X134620000Y-93980000D01*
X167513289Y-119253288D02*
X183388288Y-103378288D01*
X192117500Y-97442500D02*
X189895000Y-95220000D01*
X184150000Y-89475000D02*
X184150000Y-85090000D01*
X183896577Y-102870000D02*
X186690000Y-102870000D01*
X175260000Y-71120000D02*
X170180000Y-71120000D01*
X193040000Y-71120000D02*
X175260000Y-71120000D01*
X138740000Y-98100000D02*
X137160000Y-96520000D01*
X193040000Y-114300000D02*
X193040000Y-111760000D01*
X171450000Y-125730000D02*
X171450000Y-123190000D01*
X167513289Y-119253288D02*
X171450000Y-123190000D01*
X170180000Y-71120000D02*
X152400000Y-71120000D01*
X149860000Y-81280000D02*
X147320000Y-78740000D01*
X189895000Y-95220000D02*
X184150000Y-89475000D01*
X180466712Y-119253288D02*
X172466577Y-119253288D01*
X116680000Y-137000000D02*
X96520000Y-116840000D01*
X137160000Y-96520000D02*
X149860000Y-83820000D01*
X175260000Y-76200000D02*
X175260000Y-71120000D01*
X119380000Y-137000000D02*
X116680000Y-137000000D01*
X186690000Y-102870000D02*
X192117500Y-97442500D01*
%TO.N,/+5V*%
X200660000Y-109220000D02*
X203880000Y-112440000D01*
X96520000Y-114300000D02*
X95019000Y-115801000D01*
X106680000Y-83820000D02*
X104140000Y-81280000D01*
X142240000Y-116640000D02*
X142240000Y-114300000D01*
X95019000Y-115801000D02*
X95019000Y-120001735D01*
X135580000Y-109220000D02*
X125420000Y-119380000D01*
X106680000Y-104140000D02*
X106680000Y-83820000D01*
X95019000Y-120001735D02*
X114517265Y-139500000D01*
X119380000Y-139500000D02*
X139600000Y-119280000D01*
X96520000Y-114300000D02*
X106680000Y-104140000D01*
X203880000Y-112440000D02*
X203880000Y-114285000D01*
X154940000Y-109220000D02*
X152400000Y-106680000D01*
X153501000Y-133181000D02*
X139600000Y-119280000D01*
X202806050Y-126411000D02*
X196036049Y-133181000D01*
X203880000Y-114285000D02*
X205151000Y-115556000D01*
X205151000Y-115556000D02*
X205151000Y-125268131D01*
X125420000Y-119380000D02*
X121920000Y-119380000D01*
X205151000Y-125268131D02*
X204008131Y-126411000D01*
X144780000Y-114300000D02*
X152400000Y-106680000D01*
X121920000Y-119380000D02*
X106680000Y-104140000D01*
X140870000Y-118010000D02*
X142140000Y-116740000D01*
X114517265Y-139500000D02*
X119380000Y-139500000D01*
X152400000Y-106680000D02*
X152400000Y-93980000D01*
X160020000Y-109220000D02*
X154940000Y-109220000D01*
X110475000Y-74945000D02*
X111785000Y-74945000D01*
X104140000Y-81280000D02*
X110475000Y-74945000D01*
X152400000Y-93980000D02*
X152400000Y-88900000D01*
X196036049Y-133181000D02*
X153501000Y-133181000D01*
X204008131Y-126411000D02*
X202806050Y-126411000D01*
X139600000Y-119280000D02*
X140870000Y-118010000D01*
X142140000Y-116740000D02*
X142240000Y-116640000D01*
X142240000Y-114300000D02*
X144780000Y-114300000D01*
%TO.N,/+12V*%
X203200000Y-129540000D02*
X208280000Y-124460000D01*
X208280000Y-124460000D02*
X208280000Y-93980000D01*
X208280000Y-93980000D02*
X203200000Y-88900000D01*
X203200000Y-88900000D02*
X193040000Y-88900000D01*
%TD*%
%TA.AperFunction,Conductor*%
%TO.N,GND*%
G36*
X210442539Y-65520185D02*
G01*
X210488294Y-65572989D01*
X210499500Y-65624500D01*
X210499500Y-144375500D01*
X210479815Y-144442539D01*
X210427011Y-144488294D01*
X210375500Y-144499500D01*
X91624500Y-144499500D01*
X91557461Y-144479815D01*
X91511706Y-144427011D01*
X91500500Y-144375500D01*
X91500500Y-115707384D01*
X94068500Y-115707384D01*
X94068500Y-115711692D01*
X94068500Y-120095356D01*
X94105024Y-120278977D01*
X94105027Y-120278986D01*
X94176673Y-120451958D01*
X94176680Y-120451971D01*
X94280697Y-120607642D01*
X94280700Y-120607646D01*
X113911353Y-140238299D01*
X113911357Y-140238302D01*
X114067028Y-140342319D01*
X114067030Y-140342320D01*
X114067035Y-140342323D01*
X114168364Y-140384294D01*
X114240014Y-140413973D01*
X114266966Y-140419334D01*
X114359067Y-140437654D01*
X114423645Y-140450500D01*
X114423648Y-140450500D01*
X114423649Y-140450500D01*
X117920202Y-140450500D01*
X117987241Y-140470185D01*
X118025739Y-140509401D01*
X118062288Y-140568656D01*
X118186344Y-140692712D01*
X118335666Y-140784814D01*
X118502203Y-140839999D01*
X118604991Y-140850500D01*
X120155008Y-140850499D01*
X120257797Y-140839999D01*
X120424334Y-140784814D01*
X120573656Y-140692712D01*
X120697712Y-140568656D01*
X120789814Y-140419334D01*
X120844999Y-140252797D01*
X120855500Y-140150009D01*
X120855499Y-139420070D01*
X120875183Y-139353032D01*
X120891813Y-139332395D01*
X139512320Y-120711889D01*
X139573641Y-120678406D01*
X139643333Y-120683390D01*
X139687680Y-120711891D01*
X152895088Y-133919299D01*
X152895092Y-133919302D01*
X153050766Y-134023321D01*
X153050768Y-134023322D01*
X153050770Y-134023323D01*
X153086026Y-134037926D01*
X153086027Y-134037927D01*
X153086028Y-134037927D01*
X153223749Y-134094973D01*
X153255370Y-134101262D01*
X153315517Y-134113227D01*
X153315550Y-134113232D01*
X153315566Y-134113236D01*
X153376777Y-134125412D01*
X153407382Y-134131500D01*
X153407383Y-134131500D01*
X196129667Y-134131500D01*
X196148029Y-134127847D01*
X196221482Y-134113236D01*
X196221483Y-134113236D01*
X196244594Y-134108638D01*
X196313300Y-134094973D01*
X196451021Y-134037927D01*
X196486279Y-134023323D01*
X196641957Y-133919302D01*
X201187821Y-129373437D01*
X201249142Y-129339954D01*
X201318834Y-129344938D01*
X201374767Y-129386810D01*
X201399184Y-129452274D01*
X201399500Y-129461120D01*
X201399500Y-130640001D01*
X201399501Y-130640018D01*
X201410000Y-130742796D01*
X201410001Y-130742799D01*
X201443851Y-130844949D01*
X201465186Y-130909334D01*
X201557288Y-131058656D01*
X201681344Y-131182712D01*
X201830666Y-131274814D01*
X201997203Y-131329999D01*
X202099991Y-131340500D01*
X204300008Y-131340499D01*
X204402797Y-131329999D01*
X204569334Y-131274814D01*
X204718656Y-131182712D01*
X204842712Y-131058656D01*
X204934814Y-130909334D01*
X204989999Y-130742797D01*
X205000500Y-130640009D01*
X205000499Y-129135070D01*
X205020184Y-129068032D01*
X205036813Y-129047395D01*
X209018302Y-125065908D01*
X209122323Y-124910230D01*
X209193973Y-124737250D01*
X209230500Y-124553617D01*
X209230500Y-124366383D01*
X209230500Y-93886384D01*
X209193973Y-93702749D01*
X209153398Y-93604792D01*
X209153396Y-93604786D01*
X209122326Y-93529776D01*
X209122319Y-93529763D01*
X209018302Y-93374092D01*
X209018299Y-93374088D01*
X203805911Y-88161700D01*
X203805907Y-88161697D01*
X203650236Y-88057680D01*
X203650223Y-88057673D01*
X203523575Y-88005215D01*
X203523574Y-88005214D01*
X203516122Y-88002128D01*
X203477251Y-87986027D01*
X203385433Y-87967763D01*
X203381380Y-87966956D01*
X203381377Y-87966956D01*
X203293620Y-87949500D01*
X203293617Y-87949500D01*
X203293616Y-87949500D01*
X194472791Y-87949500D01*
X194405752Y-87929815D01*
X194359997Y-87877011D01*
X194356609Y-87868833D01*
X194333797Y-87807671D01*
X194333793Y-87807664D01*
X194247547Y-87692455D01*
X194247544Y-87692452D01*
X194132335Y-87606206D01*
X194132328Y-87606202D01*
X193997482Y-87555908D01*
X193997483Y-87555908D01*
X193937883Y-87549501D01*
X193937881Y-87549500D01*
X193937873Y-87549500D01*
X193937864Y-87549500D01*
X192142129Y-87549500D01*
X192142123Y-87549501D01*
X192082516Y-87555908D01*
X191947671Y-87606202D01*
X191947664Y-87606206D01*
X191832455Y-87692452D01*
X191832452Y-87692455D01*
X191746206Y-87807664D01*
X191746202Y-87807671D01*
X191695908Y-87942517D01*
X191689501Y-88002116D01*
X191689500Y-88002128D01*
X191689500Y-89797870D01*
X191689501Y-89797876D01*
X191695908Y-89857483D01*
X191746202Y-89992328D01*
X191746206Y-89992335D01*
X191832452Y-90107544D01*
X191832455Y-90107547D01*
X191947664Y-90193793D01*
X191947671Y-90193797D01*
X192082517Y-90244091D01*
X192082516Y-90244091D01*
X192089444Y-90244835D01*
X192142127Y-90250500D01*
X193937872Y-90250499D01*
X193997483Y-90244091D01*
X194132331Y-90193796D01*
X194247546Y-90107546D01*
X194333796Y-89992331D01*
X194356609Y-89931167D01*
X194398480Y-89875233D01*
X194463944Y-89850816D01*
X194472791Y-89850500D01*
X202754928Y-89850500D01*
X202821967Y-89870185D01*
X202842609Y-89886819D01*
X207293181Y-94337391D01*
X207326666Y-94398714D01*
X207329500Y-94425072D01*
X207329500Y-124014928D01*
X207309815Y-124081967D01*
X207293181Y-124102609D01*
X206313181Y-125082609D01*
X206251858Y-125116094D01*
X206182166Y-125111110D01*
X206126233Y-125069238D01*
X206101816Y-125003774D01*
X206101500Y-124994928D01*
X206101500Y-115462384D01*
X206100041Y-115455051D01*
X206100040Y-115455045D01*
X206064974Y-115278755D01*
X206064973Y-115278749D01*
X205993322Y-115105769D01*
X205993321Y-115105768D01*
X205993318Y-115105762D01*
X205889301Y-114950091D01*
X205889298Y-114950087D01*
X204866819Y-113927608D01*
X204833334Y-113866285D01*
X204830500Y-113839927D01*
X204830500Y-112346383D01*
X204830499Y-112346379D01*
X204793974Y-112162756D01*
X204793973Y-112162749D01*
X204748031Y-112051835D01*
X204748031Y-112051834D01*
X204722326Y-111989776D01*
X204722319Y-111989763D01*
X204618302Y-111834092D01*
X204618299Y-111834088D01*
X202046818Y-109262607D01*
X202013333Y-109201284D01*
X202010499Y-109174926D01*
X202010499Y-108322129D01*
X202010498Y-108322123D01*
X202010497Y-108322116D01*
X202004091Y-108262517D01*
X201981274Y-108201342D01*
X201953797Y-108127671D01*
X201953793Y-108127664D01*
X201867547Y-108012455D01*
X201867544Y-108012452D01*
X201752335Y-107926206D01*
X201752328Y-107926202D01*
X201617482Y-107875908D01*
X201617483Y-107875908D01*
X201557883Y-107869501D01*
X201557881Y-107869500D01*
X201557873Y-107869500D01*
X201557865Y-107869500D01*
X201547309Y-107869500D01*
X201480270Y-107849815D01*
X201459628Y-107833181D01*
X200789408Y-107162962D01*
X200852993Y-107145925D01*
X200967007Y-107080099D01*
X201060099Y-106987007D01*
X201125925Y-106872993D01*
X201142962Y-106809409D01*
X201775270Y-107441717D01*
X201775270Y-107441716D01*
X201814622Y-107387554D01*
X201911095Y-107198217D01*
X201976757Y-106996130D01*
X201976757Y-106996127D01*
X202010000Y-106786246D01*
X202010000Y-106573753D01*
X201976757Y-106363872D01*
X201976757Y-106363869D01*
X201911095Y-106161782D01*
X201814624Y-105972449D01*
X201775270Y-105918282D01*
X201775269Y-105918282D01*
X201142962Y-106550590D01*
X201125925Y-106487007D01*
X201060099Y-106372993D01*
X200967007Y-106279901D01*
X200852993Y-106214075D01*
X200789409Y-106197037D01*
X201421716Y-105564728D01*
X201367547Y-105525373D01*
X201367547Y-105525372D01*
X201358500Y-105520763D01*
X201307706Y-105472788D01*
X201290912Y-105404966D01*
X201313451Y-105338832D01*
X201358508Y-105299793D01*
X201367816Y-105295051D01*
X201447007Y-105237515D01*
X201539786Y-105170109D01*
X201539788Y-105170106D01*
X201539792Y-105170104D01*
X201690104Y-105019792D01*
X201690106Y-105019788D01*
X201690109Y-105019786D01*
X201806194Y-104860007D01*
X201815051Y-104847816D01*
X201911557Y-104658412D01*
X201977246Y-104456243D01*
X202010500Y-104246287D01*
X202010500Y-104033713D01*
X201977246Y-103823757D01*
X201911557Y-103621588D01*
X201815051Y-103432184D01*
X201815049Y-103432181D01*
X201815048Y-103432179D01*
X201690109Y-103260213D01*
X201539786Y-103109890D01*
X201367820Y-102984951D01*
X201178414Y-102888444D01*
X201178413Y-102888443D01*
X201178412Y-102888443D01*
X200976243Y-102822754D01*
X200976241Y-102822753D01*
X200976240Y-102822753D01*
X200814957Y-102797208D01*
X200766287Y-102789500D01*
X200553713Y-102789500D01*
X200505042Y-102797208D01*
X200343760Y-102822753D01*
X200141585Y-102888444D01*
X199952179Y-102984951D01*
X199780213Y-103109890D01*
X199629890Y-103260213D01*
X199504951Y-103432179D01*
X199408444Y-103621585D01*
X199408443Y-103621587D01*
X199408443Y-103621588D01*
X199392613Y-103670307D01*
X199342753Y-103823760D01*
X199309500Y-104033713D01*
X199309500Y-104246286D01*
X199339792Y-104437545D01*
X199342754Y-104456243D01*
X199403095Y-104641954D01*
X199408444Y-104658414D01*
X199504951Y-104847820D01*
X199629890Y-105019786D01*
X199780213Y-105170109D01*
X199952179Y-105295048D01*
X199952181Y-105295049D01*
X199952184Y-105295051D01*
X199961493Y-105299794D01*
X200012290Y-105347766D01*
X200029087Y-105415587D01*
X200006552Y-105481722D01*
X199961505Y-105520760D01*
X199952446Y-105525376D01*
X199952440Y-105525380D01*
X199898282Y-105564727D01*
X199898282Y-105564728D01*
X200530591Y-106197037D01*
X200467007Y-106214075D01*
X200352993Y-106279901D01*
X200259901Y-106372993D01*
X200194075Y-106487007D01*
X200177037Y-106550591D01*
X199544728Y-105918282D01*
X199544727Y-105918282D01*
X199505380Y-105972439D01*
X199408904Y-106161782D01*
X199343242Y-106363869D01*
X199343242Y-106363872D01*
X199310000Y-106573753D01*
X199310000Y-106786246D01*
X199343242Y-106996127D01*
X199343242Y-106996130D01*
X199408904Y-107198217D01*
X199505375Y-107387550D01*
X199544728Y-107441716D01*
X200177037Y-106809408D01*
X200194075Y-106872993D01*
X200259901Y-106987007D01*
X200352993Y-107080099D01*
X200467007Y-107145925D01*
X200530590Y-107162962D01*
X199860370Y-107833181D01*
X199799047Y-107866666D01*
X199772698Y-107869500D01*
X199762134Y-107869500D01*
X199762123Y-107869501D01*
X199702516Y-107875908D01*
X199567671Y-107926202D01*
X199567664Y-107926206D01*
X199452455Y-108012452D01*
X199452452Y-108012455D01*
X199366206Y-108127664D01*
X199366202Y-108127671D01*
X199315908Y-108262517D01*
X199309501Y-108322116D01*
X199309501Y-108322123D01*
X199309500Y-108322135D01*
X199309500Y-110117870D01*
X199309501Y-110117876D01*
X199315908Y-110177483D01*
X199366202Y-110312328D01*
X199366206Y-110312335D01*
X199452452Y-110427544D01*
X199452455Y-110427547D01*
X199567664Y-110513793D01*
X199567671Y-110513797D01*
X199702517Y-110564091D01*
X199702516Y-110564091D01*
X199709444Y-110564835D01*
X199762127Y-110570500D01*
X200614927Y-110570499D01*
X200681966Y-110590183D01*
X200702608Y-110606818D01*
X202893181Y-112797391D01*
X202926666Y-112858714D01*
X202929500Y-112885072D01*
X202929500Y-114378616D01*
X202932484Y-114393616D01*
X202932483Y-114393616D01*
X202932484Y-114393619D01*
X202966024Y-114562243D01*
X202966026Y-114562247D01*
X202966027Y-114562251D01*
X202988391Y-114616243D01*
X203037675Y-114735227D01*
X203037680Y-114735236D01*
X203141697Y-114890907D01*
X203141700Y-114890911D01*
X204164181Y-115913391D01*
X204197666Y-115974714D01*
X204200500Y-116001072D01*
X204200500Y-122744403D01*
X204180815Y-122811442D01*
X204128011Y-122857197D01*
X204058853Y-122867141D01*
X204014502Y-122851791D01*
X203997833Y-122842168D01*
X203997816Y-122842159D01*
X203779836Y-122751870D01*
X203779838Y-122751870D01*
X203551914Y-122690799D01*
X203317985Y-122660000D01*
X203082014Y-122660000D01*
X202848085Y-122690799D01*
X202620162Y-122751870D01*
X202402180Y-122842160D01*
X202402171Y-122842165D01*
X202197828Y-122960144D01*
X202197818Y-122960150D01*
X202116275Y-123022720D01*
X202116275Y-123022721D01*
X202952512Y-123858958D01*
X202892110Y-123883978D01*
X202785649Y-123955112D01*
X202695112Y-124045649D01*
X202623978Y-124152110D01*
X202598958Y-124212511D01*
X201762721Y-123376275D01*
X201762720Y-123376275D01*
X201700150Y-123457818D01*
X201700144Y-123457828D01*
X201582165Y-123662171D01*
X201582160Y-123662180D01*
X201491870Y-123880162D01*
X201430799Y-124108085D01*
X201400000Y-124342014D01*
X201400000Y-124577985D01*
X201430799Y-124811914D01*
X201491870Y-125039837D01*
X201582160Y-125257819D01*
X201582165Y-125257828D01*
X201700144Y-125462171D01*
X201700145Y-125462172D01*
X201762721Y-125543723D01*
X202598958Y-124707487D01*
X202623978Y-124767890D01*
X202695112Y-124874351D01*
X202785649Y-124964888D01*
X202892110Y-125036022D01*
X202952510Y-125061041D01*
X202525290Y-125488262D01*
X202518359Y-125492892D01*
X202515418Y-125497130D01*
X202485065Y-125515141D01*
X202462733Y-125524391D01*
X202457149Y-125526705D01*
X202355822Y-125568675D01*
X202355813Y-125568680D01*
X202200142Y-125672697D01*
X202200138Y-125672700D01*
X195678658Y-132194181D01*
X195617335Y-132227666D01*
X195590977Y-132230500D01*
X188084000Y-132230500D01*
X188016961Y-132210815D01*
X187971206Y-132158011D01*
X187960000Y-132106500D01*
X187960000Y-104140000D01*
X154940000Y-104140000D01*
X154940000Y-107576428D01*
X154920315Y-107643467D01*
X154867511Y-107689222D01*
X154798353Y-107699166D01*
X154734797Y-107670141D01*
X154728319Y-107664109D01*
X153386819Y-106322609D01*
X153353334Y-106261286D01*
X153350500Y-106234928D01*
X153350500Y-90332790D01*
X153370185Y-90265751D01*
X153422989Y-90219996D01*
X153431146Y-90216616D01*
X153492331Y-90193796D01*
X153607546Y-90107546D01*
X153693796Y-89992331D01*
X153744091Y-89857483D01*
X153750500Y-89797873D01*
X153750499Y-88002128D01*
X153744091Y-87942517D01*
X153739353Y-87929815D01*
X153693797Y-87807671D01*
X153693793Y-87807664D01*
X153607547Y-87692455D01*
X153607544Y-87692452D01*
X153492335Y-87606206D01*
X153492328Y-87606202D01*
X153357482Y-87555908D01*
X153357483Y-87555908D01*
X153297883Y-87549501D01*
X153297881Y-87549500D01*
X153297873Y-87549500D01*
X153297864Y-87549500D01*
X151502129Y-87549500D01*
X151502123Y-87549501D01*
X151442516Y-87555908D01*
X151307671Y-87606202D01*
X151307664Y-87606206D01*
X151192455Y-87692452D01*
X151192452Y-87692455D01*
X151106206Y-87807664D01*
X151106202Y-87807671D01*
X151055908Y-87942517D01*
X151049501Y-88002116D01*
X151049500Y-88002128D01*
X151049500Y-89797870D01*
X151049501Y-89797876D01*
X151055908Y-89857483D01*
X151106202Y-89992328D01*
X151106206Y-89992335D01*
X151192452Y-90107544D01*
X151192455Y-90107547D01*
X151307664Y-90193793D01*
X151307669Y-90193796D01*
X151368833Y-90216608D01*
X151424766Y-90258478D01*
X151449184Y-90323942D01*
X151449500Y-90332790D01*
X151449500Y-106234928D01*
X151429815Y-106301967D01*
X151413181Y-106322609D01*
X144422609Y-113313181D01*
X144361286Y-113346666D01*
X144334928Y-113349500D01*
X142146379Y-113349500D01*
X141962756Y-113386025D01*
X141962748Y-113386027D01*
X141789771Y-113457676D01*
X141789762Y-113457681D01*
X141634092Y-113561697D01*
X141634088Y-113561700D01*
X141501700Y-113694088D01*
X141501697Y-113694092D01*
X141397681Y-113849762D01*
X141397676Y-113849771D01*
X141326027Y-114022748D01*
X141326025Y-114022756D01*
X141289500Y-114206379D01*
X141289500Y-116194928D01*
X141269815Y-116261967D01*
X141253181Y-116282609D01*
X138994091Y-118541699D01*
X120972236Y-136563551D01*
X120910913Y-136597036D01*
X120841221Y-136592052D01*
X120785288Y-136550180D01*
X120766623Y-136514186D01*
X120756094Y-136481780D01*
X120659620Y-136292442D01*
X120534727Y-136120540D01*
X120534723Y-136120535D01*
X120384464Y-135970276D01*
X120384459Y-135970272D01*
X120219781Y-135850627D01*
X120177115Y-135795297D01*
X120171136Y-135725684D01*
X120203741Y-135663889D01*
X120219776Y-135649994D01*
X120384792Y-135530104D01*
X120535104Y-135379792D01*
X120535106Y-135379788D01*
X120535109Y-135379786D01*
X120660048Y-135207820D01*
X120660047Y-135207820D01*
X120660051Y-135207816D01*
X120756557Y-135018412D01*
X120822246Y-134816243D01*
X120855500Y-134606287D01*
X120855500Y-134393713D01*
X120822246Y-134183757D01*
X120756557Y-133981588D01*
X120660051Y-133792184D01*
X120660049Y-133792181D01*
X120660048Y-133792179D01*
X120535109Y-133620213D01*
X120384792Y-133469896D01*
X120384784Y-133469890D01*
X120220204Y-133350316D01*
X120177540Y-133294989D01*
X120171561Y-133225376D01*
X120204166Y-133163580D01*
X120220199Y-133149686D01*
X120384792Y-133030104D01*
X120535104Y-132879792D01*
X120535106Y-132879788D01*
X120535109Y-132879786D01*
X120660048Y-132707820D01*
X120660047Y-132707820D01*
X120660051Y-132707816D01*
X120756557Y-132518412D01*
X120822246Y-132316243D01*
X120855500Y-132106287D01*
X120855500Y-131893713D01*
X120822246Y-131683757D01*
X120756557Y-131481588D01*
X120660051Y-131292184D01*
X120660049Y-131292181D01*
X120660048Y-131292179D01*
X120535109Y-131120213D01*
X120384792Y-130969896D01*
X120384784Y-130969890D01*
X120220204Y-130850316D01*
X120177540Y-130794989D01*
X120171561Y-130725376D01*
X120204166Y-130663580D01*
X120220199Y-130649686D01*
X120384792Y-130530104D01*
X120535104Y-130379792D01*
X120535106Y-130379788D01*
X120535109Y-130379786D01*
X120660048Y-130207820D01*
X120660047Y-130207820D01*
X120660051Y-130207816D01*
X120756557Y-130018412D01*
X120822246Y-129816243D01*
X120855500Y-129606287D01*
X120855500Y-129393713D01*
X120822246Y-129183757D01*
X120756557Y-128981588D01*
X120660051Y-128792184D01*
X120660049Y-128792181D01*
X120660048Y-128792179D01*
X120535109Y-128620213D01*
X120384792Y-128469896D01*
X120384784Y-128469890D01*
X120220204Y-128350316D01*
X120177540Y-128294989D01*
X120171561Y-128225376D01*
X120204166Y-128163580D01*
X120220199Y-128149686D01*
X120384792Y-128030104D01*
X120535104Y-127879792D01*
X120535106Y-127879788D01*
X120535109Y-127879786D01*
X120660048Y-127707820D01*
X120660047Y-127707820D01*
X120660051Y-127707816D01*
X120756557Y-127518412D01*
X120822246Y-127316243D01*
X120855500Y-127106287D01*
X120855500Y-126893713D01*
X120822246Y-126683757D01*
X120756557Y-126481588D01*
X120660051Y-126292184D01*
X120660049Y-126292181D01*
X120660048Y-126292179D01*
X120535109Y-126120213D01*
X120384786Y-125969890D01*
X120212820Y-125844951D01*
X120023414Y-125748444D01*
X120023413Y-125748443D01*
X120023412Y-125748443D01*
X119821243Y-125682754D01*
X119821241Y-125682753D01*
X119821240Y-125682753D01*
X119659957Y-125657208D01*
X119611287Y-125649500D01*
X119148713Y-125649500D01*
X119100042Y-125657208D01*
X118938760Y-125682753D01*
X118736585Y-125748444D01*
X118547179Y-125844951D01*
X118375213Y-125969890D01*
X118224890Y-126120213D01*
X118099951Y-126292179D01*
X118003444Y-126481585D01*
X117937753Y-126683760D01*
X117936291Y-126692993D01*
X117904500Y-126893713D01*
X117904500Y-127106287D01*
X117937754Y-127316243D01*
X117983133Y-127455906D01*
X118003444Y-127518414D01*
X118099951Y-127707820D01*
X118224890Y-127879786D01*
X118375209Y-128030105D01*
X118375214Y-128030109D01*
X118539793Y-128149682D01*
X118582459Y-128205011D01*
X118588438Y-128274625D01*
X118555833Y-128336420D01*
X118539793Y-128350318D01*
X118375214Y-128469890D01*
X118375209Y-128469894D01*
X118224890Y-128620213D01*
X118099951Y-128792179D01*
X118003444Y-128981585D01*
X117937753Y-129183760D01*
X117904500Y-129393713D01*
X117904500Y-129606286D01*
X117937753Y-129816239D01*
X118003444Y-130018414D01*
X118099951Y-130207820D01*
X118224890Y-130379786D01*
X118375209Y-130530105D01*
X118375214Y-130530109D01*
X118539793Y-130649682D01*
X118582459Y-130705011D01*
X118588438Y-130774625D01*
X118555833Y-130836420D01*
X118539793Y-130850318D01*
X118375214Y-130969890D01*
X118375209Y-130969894D01*
X118224890Y-131120213D01*
X118099951Y-131292179D01*
X118003444Y-131481585D01*
X117937753Y-131683760D01*
X117904500Y-131893713D01*
X117904500Y-132106286D01*
X117937753Y-132316239D01*
X118003444Y-132518414D01*
X118099951Y-132707820D01*
X118224890Y-132879786D01*
X118375209Y-133030105D01*
X118375214Y-133030109D01*
X118539793Y-133149682D01*
X118582459Y-133205011D01*
X118588438Y-133274625D01*
X118555833Y-133336420D01*
X118539793Y-133350318D01*
X118375214Y-133469890D01*
X118375209Y-133469894D01*
X118224890Y-133620213D01*
X118099951Y-133792179D01*
X118003444Y-133981585D01*
X117937753Y-134183760D01*
X117904500Y-134393713D01*
X117904500Y-134606286D01*
X117937753Y-134816239D01*
X118003444Y-135018414D01*
X118099951Y-135207820D01*
X118224890Y-135379786D01*
X118375209Y-135530105D01*
X118375214Y-135530109D01*
X118540218Y-135649991D01*
X118582884Y-135705320D01*
X118588863Y-135774934D01*
X118556258Y-135836729D01*
X118540218Y-135850627D01*
X118375540Y-135970272D01*
X118375535Y-135970276D01*
X118225276Y-136120535D01*
X118225272Y-136120540D01*
X118100379Y-136292442D01*
X118003904Y-136481782D01*
X117938242Y-136683870D01*
X117938242Y-136683873D01*
X117927769Y-136750000D01*
X118975854Y-136750000D01*
X118937370Y-136816657D01*
X118905000Y-136937465D01*
X118905000Y-137062535D01*
X118937370Y-137183343D01*
X118975854Y-137250000D01*
X117927769Y-137250000D01*
X117938242Y-137316126D01*
X117938242Y-137316129D01*
X118003904Y-137518217D01*
X118100379Y-137707557D01*
X118225272Y-137879459D01*
X118225276Y-137879464D01*
X118364143Y-138018331D01*
X118397628Y-138079654D01*
X118392644Y-138149346D01*
X118350772Y-138205279D01*
X118341559Y-138211551D01*
X118186342Y-138307289D01*
X118062289Y-138431342D01*
X118025741Y-138490597D01*
X117973793Y-138537321D01*
X117920202Y-138549500D01*
X114962337Y-138549500D01*
X114895298Y-138529815D01*
X114874656Y-138513181D01*
X96005819Y-119644344D01*
X95972334Y-119583021D01*
X95969500Y-119556663D01*
X95969500Y-116246072D01*
X95989185Y-116179033D01*
X96005819Y-116158391D01*
X97258302Y-114905908D01*
X101901842Y-110262368D01*
X106592320Y-105571889D01*
X106653641Y-105538406D01*
X106723333Y-105543390D01*
X106767680Y-105571891D01*
X121314088Y-120118299D01*
X121314092Y-120118302D01*
X121469763Y-120222319D01*
X121469770Y-120222323D01*
X121560229Y-120259792D01*
X121642749Y-120293973D01*
X121826379Y-120330499D01*
X121826383Y-120330500D01*
X121826384Y-120330500D01*
X125513618Y-120330500D01*
X125521870Y-120328858D01*
X125605433Y-120312236D01*
X125697251Y-120293973D01*
X125779771Y-120259792D01*
X125870230Y-120222323D01*
X126025908Y-120118302D01*
X135587391Y-110556817D01*
X135648714Y-110523333D01*
X135675072Y-110520499D01*
X136180002Y-110520499D01*
X136180008Y-110520499D01*
X136282797Y-110509999D01*
X136449334Y-110454814D01*
X136598656Y-110362712D01*
X136722712Y-110238656D01*
X136814814Y-110089334D01*
X136869999Y-109922797D01*
X136880500Y-109820009D01*
X136880499Y-108619992D01*
X136869999Y-108517203D01*
X136814814Y-108350666D01*
X136722712Y-108201344D01*
X136598656Y-108077288D01*
X136493543Y-108012454D01*
X136449336Y-107985187D01*
X136449331Y-107985185D01*
X136447862Y-107984698D01*
X136282797Y-107930001D01*
X136282795Y-107930000D01*
X136180010Y-107919500D01*
X134979998Y-107919500D01*
X134979981Y-107919501D01*
X134877203Y-107930000D01*
X134877200Y-107930001D01*
X134710668Y-107985185D01*
X134710663Y-107985187D01*
X134561342Y-108077289D01*
X134437289Y-108201342D01*
X134345187Y-108350663D01*
X134345186Y-108350666D01*
X134290001Y-108517203D01*
X134290001Y-108517204D01*
X134290000Y-108517204D01*
X134279500Y-108619983D01*
X134279500Y-109124927D01*
X134259815Y-109191966D01*
X134243181Y-109212608D01*
X133342624Y-110113164D01*
X133281301Y-110146649D01*
X133211609Y-110141665D01*
X133155676Y-110099793D01*
X133131259Y-110034329D01*
X133146111Y-109966056D01*
X133154626Y-109952596D01*
X133191859Y-109901350D01*
X133284755Y-109719031D01*
X133347990Y-109524417D01*
X133380000Y-109322317D01*
X133380000Y-109117682D01*
X133347990Y-108915582D01*
X133284755Y-108720968D01*
X133191859Y-108538650D01*
X133159474Y-108494077D01*
X133159474Y-108494076D01*
X132480000Y-109173553D01*
X132480000Y-109167339D01*
X132452741Y-109065606D01*
X132400080Y-108974394D01*
X132325606Y-108899920D01*
X132234394Y-108847259D01*
X132132661Y-108820000D01*
X132126446Y-108820000D01*
X132805922Y-108140524D01*
X132805921Y-108140523D01*
X132761359Y-108108147D01*
X132761350Y-108108141D01*
X132579031Y-108015244D01*
X132384417Y-107952009D01*
X132182317Y-107920000D01*
X131977683Y-107920000D01*
X131775582Y-107952009D01*
X131580968Y-108015244D01*
X131398644Y-108108143D01*
X131354077Y-108140523D01*
X131354077Y-108140524D01*
X132033554Y-108820000D01*
X132027339Y-108820000D01*
X131925606Y-108847259D01*
X131834394Y-108899920D01*
X131759920Y-108974394D01*
X131707259Y-109065606D01*
X131680000Y-109167339D01*
X131680000Y-109173553D01*
X131000524Y-108494077D01*
X131000523Y-108494077D01*
X130968143Y-108538644D01*
X130875244Y-108720968D01*
X130812009Y-108915582D01*
X130780000Y-109117682D01*
X130780000Y-109322317D01*
X130812009Y-109524417D01*
X130875244Y-109719031D01*
X130968141Y-109901350D01*
X130968147Y-109901359D01*
X131000523Y-109945921D01*
X131000524Y-109945922D01*
X131680000Y-109266446D01*
X131680000Y-109272661D01*
X131707259Y-109374394D01*
X131759920Y-109465606D01*
X131834394Y-109540080D01*
X131925606Y-109592741D01*
X132027339Y-109620000D01*
X132033553Y-109620000D01*
X131354076Y-110299474D01*
X131398650Y-110331859D01*
X131580968Y-110424755D01*
X131775582Y-110487990D01*
X131977683Y-110520000D01*
X132182317Y-110520000D01*
X132384417Y-110487990D01*
X132579031Y-110424755D01*
X132761350Y-110331859D01*
X132812597Y-110294625D01*
X132878403Y-110271144D01*
X132946457Y-110286968D01*
X132995153Y-110337073D01*
X133009029Y-110405551D01*
X132983681Y-110470661D01*
X132973165Y-110482623D01*
X125062609Y-118393181D01*
X125001286Y-118426666D01*
X124974928Y-118429500D01*
X122365072Y-118429500D01*
X122298033Y-118409815D01*
X122277391Y-118393181D01*
X107666819Y-103782609D01*
X107633334Y-103721286D01*
X107630500Y-103694928D01*
X107630500Y-83726383D01*
X107630499Y-83726379D01*
X107593974Y-83542756D01*
X107593973Y-83542749D01*
X107522322Y-83369769D01*
X107522321Y-83369768D01*
X107522318Y-83369762D01*
X107418303Y-83214093D01*
X107418302Y-83214092D01*
X107285908Y-83081698D01*
X105571890Y-81367680D01*
X105538405Y-81306357D01*
X105543389Y-81236665D01*
X105571886Y-81192323D01*
X110521043Y-76243165D01*
X110582364Y-76209682D01*
X110652056Y-76214666D01*
X110657242Y-76216735D01*
X110671031Y-76222598D01*
X110692669Y-76238796D01*
X110826692Y-76288783D01*
X110829269Y-76289879D01*
X110854190Y-76310348D01*
X110880016Y-76329681D01*
X110881026Y-76332390D01*
X110883261Y-76334226D01*
X110893160Y-76364922D01*
X110904433Y-76395145D01*
X110903818Y-76397970D01*
X110904706Y-76400723D01*
X110896437Y-76431901D01*
X110889582Y-76463418D01*
X110887255Y-76466526D01*
X110886796Y-76468258D01*
X110884146Y-76470678D01*
X110868431Y-76491673D01*
X110754889Y-76605215D01*
X110629951Y-76777179D01*
X110533444Y-76966585D01*
X110467753Y-77168760D01*
X110434500Y-77378713D01*
X110434500Y-77591286D01*
X110459325Y-77748028D01*
X110467754Y-77801243D01*
X110497498Y-77892786D01*
X110533444Y-78003414D01*
X110629951Y-78192820D01*
X110754890Y-78364786D01*
X110905213Y-78515109D01*
X111077182Y-78640050D01*
X111085946Y-78644516D01*
X111136742Y-78692491D01*
X111153536Y-78760312D01*
X111130998Y-78826447D01*
X111085946Y-78865484D01*
X111077182Y-78869949D01*
X110905213Y-78994890D01*
X110754890Y-79145213D01*
X110629951Y-79317179D01*
X110533444Y-79506585D01*
X110467753Y-79708760D01*
X110464078Y-79731966D01*
X110434500Y-79918713D01*
X110434500Y-80131287D01*
X110467754Y-80341243D01*
X110532886Y-80541699D01*
X110533444Y-80543414D01*
X110629951Y-80732820D01*
X110754890Y-80904786D01*
X110905213Y-81055109D01*
X111077182Y-81180050D01*
X111085946Y-81184516D01*
X111136742Y-81232491D01*
X111153536Y-81300312D01*
X111130998Y-81366447D01*
X111085946Y-81405484D01*
X111077182Y-81409949D01*
X110905213Y-81534890D01*
X110754890Y-81685213D01*
X110629951Y-81857179D01*
X110533444Y-82046585D01*
X110467753Y-82248760D01*
X110434500Y-82458713D01*
X110434500Y-82671287D01*
X110467754Y-82881243D01*
X110532886Y-83081699D01*
X110533444Y-83083414D01*
X110629951Y-83272820D01*
X110754890Y-83444786D01*
X110905213Y-83595109D01*
X111077182Y-83720050D01*
X111085946Y-83724516D01*
X111136742Y-83772491D01*
X111153536Y-83840312D01*
X111130998Y-83906447D01*
X111085946Y-83945484D01*
X111077182Y-83949949D01*
X110905213Y-84074890D01*
X110754890Y-84225213D01*
X110629951Y-84397179D01*
X110533444Y-84586585D01*
X110467753Y-84788760D01*
X110434500Y-84998713D01*
X110434500Y-85211286D01*
X110459325Y-85368028D01*
X110467754Y-85421243D01*
X110497498Y-85512786D01*
X110533444Y-85623414D01*
X110629951Y-85812820D01*
X110754890Y-85984786D01*
X110905213Y-86135109D01*
X111077182Y-86260050D01*
X111085946Y-86264516D01*
X111136742Y-86312491D01*
X111153536Y-86380312D01*
X111130998Y-86446447D01*
X111085946Y-86485484D01*
X111077182Y-86489949D01*
X110905213Y-86614890D01*
X110754890Y-86765213D01*
X110629951Y-86937179D01*
X110533444Y-87126585D01*
X110467753Y-87328760D01*
X110434500Y-87538713D01*
X110434500Y-87751286D01*
X110453117Y-87868833D01*
X110467754Y-87961243D01*
X110499088Y-88057680D01*
X110533444Y-88163414D01*
X110629951Y-88352820D01*
X110754890Y-88524786D01*
X110905213Y-88675109D01*
X111077179Y-88800048D01*
X111077181Y-88800049D01*
X111077184Y-88800051D01*
X111086493Y-88804794D01*
X111137290Y-88852766D01*
X111154087Y-88920587D01*
X111131552Y-88986722D01*
X111086505Y-89025760D01*
X111077446Y-89030376D01*
X111077440Y-89030380D01*
X111023282Y-89069727D01*
X111023282Y-89069728D01*
X111655591Y-89702037D01*
X111592007Y-89719075D01*
X111477993Y-89784901D01*
X111384901Y-89877993D01*
X111319075Y-89992007D01*
X111302037Y-90055591D01*
X110669728Y-89423282D01*
X110669727Y-89423282D01*
X110630380Y-89477439D01*
X110533904Y-89666782D01*
X110468242Y-89868869D01*
X110468242Y-89868872D01*
X110435000Y-90078753D01*
X110435000Y-90291246D01*
X110468242Y-90501127D01*
X110468242Y-90501130D01*
X110533904Y-90703217D01*
X110630375Y-90892550D01*
X110669728Y-90946716D01*
X111302037Y-90314408D01*
X111319075Y-90377993D01*
X111384901Y-90492007D01*
X111477993Y-90585099D01*
X111592007Y-90650925D01*
X111655590Y-90667962D01*
X111023282Y-91300269D01*
X111023282Y-91300270D01*
X111077452Y-91339626D01*
X111077451Y-91339626D01*
X111086495Y-91344234D01*
X111137292Y-91392208D01*
X111154087Y-91460029D01*
X111131550Y-91526164D01*
X111086499Y-91565202D01*
X111077182Y-91569949D01*
X110905213Y-91694890D01*
X110754890Y-91845213D01*
X110629951Y-92017179D01*
X110533444Y-92206585D01*
X110467753Y-92408760D01*
X110434500Y-92618713D01*
X110434500Y-92831286D01*
X110467753Y-93041239D01*
X110533444Y-93243414D01*
X110629951Y-93432820D01*
X110754890Y-93604786D01*
X110905213Y-93755109D01*
X111077179Y-93880048D01*
X111077181Y-93880049D01*
X111077184Y-93880051D01*
X111266588Y-93976557D01*
X111468757Y-94042246D01*
X111678713Y-94075500D01*
X111678714Y-94075500D01*
X111891286Y-94075500D01*
X111891287Y-94075500D01*
X112101243Y-94042246D01*
X112303412Y-93976557D01*
X112492816Y-93880051D01*
X112514789Y-93864086D01*
X112664786Y-93755109D01*
X112664788Y-93755106D01*
X112664792Y-93755104D01*
X112815104Y-93604792D01*
X112815106Y-93604788D01*
X112815109Y-93604786D01*
X112940048Y-93432820D01*
X112940047Y-93432820D01*
X112940051Y-93432816D01*
X113036557Y-93243412D01*
X113102246Y-93041243D01*
X113135500Y-92831287D01*
X113135500Y-92618713D01*
X113102246Y-92408757D01*
X113036557Y-92206588D01*
X112940051Y-92017184D01*
X112940049Y-92017181D01*
X112940048Y-92017179D01*
X112815109Y-91845213D01*
X112664786Y-91694890D01*
X112492817Y-91569949D01*
X112483504Y-91565204D01*
X112432707Y-91517230D01*
X112415912Y-91449409D01*
X112438449Y-91383274D01*
X112483507Y-91344232D01*
X112492555Y-91339622D01*
X112546716Y-91300270D01*
X112546717Y-91300270D01*
X111914408Y-90667962D01*
X111977993Y-90650925D01*
X112092007Y-90585099D01*
X112185099Y-90492007D01*
X112250925Y-90377993D01*
X112267962Y-90314408D01*
X112900270Y-90946717D01*
X112900270Y-90946716D01*
X112939622Y-90892554D01*
X113036095Y-90703217D01*
X113101757Y-90501130D01*
X113101757Y-90501127D01*
X113135000Y-90291246D01*
X113135000Y-90078753D01*
X113101757Y-89868872D01*
X113101757Y-89868869D01*
X113036095Y-89666782D01*
X112939624Y-89477449D01*
X112900270Y-89423282D01*
X112900269Y-89423282D01*
X112267962Y-90055590D01*
X112250925Y-89992007D01*
X112185099Y-89877993D01*
X112092007Y-89784901D01*
X111977993Y-89719075D01*
X111914409Y-89702037D01*
X112546716Y-89069728D01*
X112492547Y-89030373D01*
X112492547Y-89030372D01*
X112483500Y-89025763D01*
X112432706Y-88977788D01*
X112415912Y-88909966D01*
X112438451Y-88843832D01*
X112483508Y-88804793D01*
X112492816Y-88800051D01*
X112572007Y-88742515D01*
X112664786Y-88675109D01*
X112664788Y-88675106D01*
X112664792Y-88675104D01*
X112815104Y-88524792D01*
X112815106Y-88524788D01*
X112815109Y-88524786D01*
X112940048Y-88352820D01*
X112940047Y-88352820D01*
X112940051Y-88352816D01*
X113036557Y-88163412D01*
X113102246Y-87961243D01*
X113135500Y-87751287D01*
X113135500Y-87538713D01*
X113102246Y-87328757D01*
X113036557Y-87126588D01*
X112940051Y-86937184D01*
X112940049Y-86937181D01*
X112940048Y-86937179D01*
X112815109Y-86765213D01*
X112664786Y-86614890D01*
X112492820Y-86489951D01*
X112492115Y-86489591D01*
X112484054Y-86485485D01*
X112433259Y-86437512D01*
X112416463Y-86369692D01*
X112438999Y-86303556D01*
X112484054Y-86264515D01*
X112492816Y-86260051D01*
X112641640Y-86151925D01*
X112664786Y-86135109D01*
X112664788Y-86135106D01*
X112664792Y-86135104D01*
X112815104Y-85984792D01*
X112815106Y-85984788D01*
X112815109Y-85984786D01*
X112940048Y-85812820D01*
X112940047Y-85812820D01*
X112940051Y-85812816D01*
X113036557Y-85623412D01*
X113102246Y-85421243D01*
X113135500Y-85211287D01*
X113135500Y-84998713D01*
X113102246Y-84788757D01*
X113036557Y-84586588D01*
X112940051Y-84397184D01*
X112940049Y-84397181D01*
X112940048Y-84397179D01*
X112815109Y-84225213D01*
X112664786Y-84074890D01*
X112492820Y-83949951D01*
X112492115Y-83949591D01*
X112484054Y-83945485D01*
X112433259Y-83897512D01*
X112416463Y-83829692D01*
X112438999Y-83763556D01*
X112484054Y-83724515D01*
X112492816Y-83720051D01*
X112514789Y-83704086D01*
X112664786Y-83595109D01*
X112664788Y-83595106D01*
X112664792Y-83595104D01*
X112815104Y-83444792D01*
X112815106Y-83444788D01*
X112815109Y-83444786D01*
X112940048Y-83272820D01*
X112940047Y-83272820D01*
X112940051Y-83272816D01*
X113036557Y-83083412D01*
X113102246Y-82881243D01*
X113135500Y-82671287D01*
X113135500Y-82458713D01*
X113102246Y-82248757D01*
X113036557Y-82046588D01*
X112940051Y-81857184D01*
X112940049Y-81857181D01*
X112940048Y-81857179D01*
X112815109Y-81685213D01*
X112664786Y-81534890D01*
X112492820Y-81409951D01*
X112492115Y-81409591D01*
X112484054Y-81405485D01*
X112433259Y-81357512D01*
X112416463Y-81289692D01*
X112438999Y-81223556D01*
X112484054Y-81184515D01*
X112492816Y-81180051D01*
X112514789Y-81164086D01*
X112664786Y-81055109D01*
X112664788Y-81055106D01*
X112664792Y-81055104D01*
X112815104Y-80904792D01*
X112815106Y-80904788D01*
X112815109Y-80904786D01*
X112940048Y-80732820D01*
X112940047Y-80732820D01*
X112940051Y-80732816D01*
X113036557Y-80543412D01*
X113102246Y-80341243D01*
X113135500Y-80131287D01*
X113135500Y-79918713D01*
X113102246Y-79708757D01*
X113036557Y-79506588D01*
X112940051Y-79317184D01*
X112940049Y-79317181D01*
X112940048Y-79317179D01*
X112815109Y-79145213D01*
X112664786Y-78994890D01*
X112492820Y-78869951D01*
X112492115Y-78869591D01*
X112484054Y-78865485D01*
X112433259Y-78817512D01*
X112416463Y-78749692D01*
X112438999Y-78683556D01*
X112484054Y-78644515D01*
X112492816Y-78640051D01*
X112641640Y-78531925D01*
X112664786Y-78515109D01*
X112664788Y-78515106D01*
X112664792Y-78515104D01*
X112815104Y-78364792D01*
X112815106Y-78364788D01*
X112815109Y-78364786D01*
X112940048Y-78192820D01*
X112940047Y-78192820D01*
X112940051Y-78192816D01*
X113036557Y-78003412D01*
X113102246Y-77801243D01*
X113135500Y-77591287D01*
X113135500Y-77378713D01*
X113102246Y-77168757D01*
X113036557Y-76966588D01*
X112940051Y-76777184D01*
X112940049Y-76777181D01*
X112940048Y-76777179D01*
X112815109Y-76605213D01*
X112701569Y-76491673D01*
X112668084Y-76430350D01*
X112673068Y-76360658D01*
X112714940Y-76304725D01*
X112745915Y-76287810D01*
X112877331Y-76238796D01*
X112992546Y-76152546D01*
X113078796Y-76037331D01*
X113129091Y-75902483D01*
X113135500Y-75842873D01*
X113135499Y-74047128D01*
X128214500Y-74047128D01*
X128214500Y-75842870D01*
X128214501Y-75842876D01*
X128220908Y-75902483D01*
X128271202Y-76037328D01*
X128271206Y-76037335D01*
X128357452Y-76152544D01*
X128357455Y-76152547D01*
X128472664Y-76238793D01*
X128472671Y-76238797D01*
X128604082Y-76287810D01*
X128660016Y-76329681D01*
X128684433Y-76395145D01*
X128669582Y-76463418D01*
X128648431Y-76491673D01*
X128534889Y-76605215D01*
X128409951Y-76777179D01*
X128313444Y-76966585D01*
X128247753Y-77168760D01*
X128214500Y-77378713D01*
X128214500Y-77591286D01*
X128239325Y-77748028D01*
X128247754Y-77801243D01*
X128277498Y-77892786D01*
X128313444Y-78003414D01*
X128409951Y-78192820D01*
X128534890Y-78364786D01*
X128685213Y-78515109D01*
X128857182Y-78640050D01*
X128865946Y-78644516D01*
X128916742Y-78692491D01*
X128933536Y-78760312D01*
X128910998Y-78826447D01*
X128865946Y-78865484D01*
X128857182Y-78869949D01*
X128685213Y-78994890D01*
X128534890Y-79145213D01*
X128409951Y-79317179D01*
X128313444Y-79506585D01*
X128247753Y-79708760D01*
X128244078Y-79731966D01*
X128214500Y-79918713D01*
X128214500Y-80131287D01*
X128247754Y-80341243D01*
X128312886Y-80541699D01*
X128313444Y-80543414D01*
X128409951Y-80732820D01*
X128534890Y-80904786D01*
X128685213Y-81055109D01*
X128857182Y-81180050D01*
X128865946Y-81184516D01*
X128916742Y-81232491D01*
X128933536Y-81300312D01*
X128910998Y-81366447D01*
X128865946Y-81405484D01*
X128857182Y-81409949D01*
X128685213Y-81534890D01*
X128534890Y-81685213D01*
X128409951Y-81857179D01*
X128313444Y-82046585D01*
X128247753Y-82248760D01*
X128214500Y-82458713D01*
X128214500Y-82671287D01*
X128247754Y-82881243D01*
X128312886Y-83081699D01*
X128313444Y-83083414D01*
X128409951Y-83272820D01*
X128534890Y-83444786D01*
X128685213Y-83595109D01*
X128857182Y-83720050D01*
X128865946Y-83724516D01*
X128916742Y-83772491D01*
X128933536Y-83840312D01*
X128910998Y-83906447D01*
X128865946Y-83945484D01*
X128857182Y-83949949D01*
X128685213Y-84074890D01*
X128534890Y-84225213D01*
X128409951Y-84397179D01*
X128313444Y-84586585D01*
X128247753Y-84788760D01*
X128214500Y-84998713D01*
X128214500Y-85211286D01*
X128239325Y-85368028D01*
X128247754Y-85421243D01*
X128277498Y-85512786D01*
X128313444Y-85623414D01*
X128409951Y-85812820D01*
X128534890Y-85984786D01*
X128685213Y-86135109D01*
X128857182Y-86260050D01*
X128865946Y-86264516D01*
X128916742Y-86312491D01*
X128933536Y-86380312D01*
X128910998Y-86446447D01*
X128865946Y-86485484D01*
X128857182Y-86489949D01*
X128685213Y-86614890D01*
X128534890Y-86765213D01*
X128409951Y-86937179D01*
X128313444Y-87126585D01*
X128247753Y-87328760D01*
X128214500Y-87538713D01*
X128214500Y-87751286D01*
X128233117Y-87868833D01*
X128247754Y-87961243D01*
X128279088Y-88057680D01*
X128313444Y-88163414D01*
X128409951Y-88352820D01*
X128534890Y-88524786D01*
X128685213Y-88675109D01*
X128857179Y-88800048D01*
X128857181Y-88800049D01*
X128857184Y-88800051D01*
X128866493Y-88804794D01*
X128917290Y-88852766D01*
X128934087Y-88920587D01*
X128911552Y-88986722D01*
X128866505Y-89025760D01*
X128857446Y-89030376D01*
X128857440Y-89030380D01*
X128803282Y-89069727D01*
X128803282Y-89069728D01*
X129435591Y-89702037D01*
X129372007Y-89719075D01*
X129257993Y-89784901D01*
X129164901Y-89877993D01*
X129099075Y-89992007D01*
X129082037Y-90055591D01*
X128449728Y-89423282D01*
X128449727Y-89423282D01*
X128410380Y-89477439D01*
X128313904Y-89666782D01*
X128248242Y-89868869D01*
X128248242Y-89868872D01*
X128215000Y-90078753D01*
X128215000Y-90291246D01*
X128248242Y-90501127D01*
X128248242Y-90501130D01*
X128313904Y-90703217D01*
X128410375Y-90892550D01*
X128449728Y-90946716D01*
X129082037Y-90314408D01*
X129099075Y-90377993D01*
X129164901Y-90492007D01*
X129257993Y-90585099D01*
X129372007Y-90650925D01*
X129435590Y-90667962D01*
X128803282Y-91300269D01*
X128803282Y-91300270D01*
X128857452Y-91339626D01*
X128857451Y-91339626D01*
X128866495Y-91344234D01*
X128917292Y-91392208D01*
X128934087Y-91460029D01*
X128911550Y-91526164D01*
X128866499Y-91565202D01*
X128857182Y-91569949D01*
X128685213Y-91694890D01*
X128534890Y-91845213D01*
X128409951Y-92017179D01*
X128313444Y-92206585D01*
X128247753Y-92408760D01*
X128214500Y-92618713D01*
X128214500Y-92831286D01*
X128247753Y-93041239D01*
X128313444Y-93243414D01*
X128409951Y-93432820D01*
X128534890Y-93604786D01*
X128685213Y-93755109D01*
X128857179Y-93880048D01*
X128857181Y-93880049D01*
X128857184Y-93880051D01*
X129046588Y-93976557D01*
X129248757Y-94042246D01*
X129458713Y-94075500D01*
X129458714Y-94075500D01*
X129671286Y-94075500D01*
X129671287Y-94075500D01*
X129881243Y-94042246D01*
X130083412Y-93976557D01*
X130272816Y-93880051D01*
X130294789Y-93864086D01*
X130444786Y-93755109D01*
X130444788Y-93755106D01*
X130444792Y-93755104D01*
X130595104Y-93604792D01*
X130595106Y-93604788D01*
X130595109Y-93604786D01*
X130720048Y-93432820D01*
X130720047Y-93432820D01*
X130720051Y-93432816D01*
X130816557Y-93243412D01*
X130882246Y-93041243D01*
X130915500Y-92831287D01*
X130915500Y-92618713D01*
X130882246Y-92408757D01*
X130816557Y-92206588D01*
X130720051Y-92017184D01*
X130720049Y-92017181D01*
X130720048Y-92017179D01*
X130595109Y-91845213D01*
X130444786Y-91694890D01*
X130272817Y-91569949D01*
X130263504Y-91565204D01*
X130212707Y-91517230D01*
X130195912Y-91449409D01*
X130218449Y-91383274D01*
X130263507Y-91344232D01*
X130272555Y-91339622D01*
X130326716Y-91300270D01*
X130326717Y-91300270D01*
X129694408Y-90667962D01*
X129757993Y-90650925D01*
X129872007Y-90585099D01*
X129965099Y-90492007D01*
X130030925Y-90377993D01*
X130047962Y-90314409D01*
X130680270Y-90946717D01*
X130680270Y-90946716D01*
X130719622Y-90892554D01*
X130816095Y-90703217D01*
X130881757Y-90501130D01*
X130881757Y-90501127D01*
X130915000Y-90291246D01*
X130915000Y-90078753D01*
X130881757Y-89868872D01*
X130881757Y-89868869D01*
X130816095Y-89666782D01*
X130719624Y-89477449D01*
X130680270Y-89423282D01*
X130680269Y-89423282D01*
X130047962Y-90055590D01*
X130030925Y-89992007D01*
X129965099Y-89877993D01*
X129872007Y-89784901D01*
X129757993Y-89719075D01*
X129694409Y-89702037D01*
X130326716Y-89069728D01*
X130272547Y-89030373D01*
X130272547Y-89030372D01*
X130263500Y-89025763D01*
X130212706Y-88977788D01*
X130195912Y-88909966D01*
X130218451Y-88843832D01*
X130263508Y-88804793D01*
X130272816Y-88800051D01*
X130352007Y-88742515D01*
X130444786Y-88675109D01*
X130444788Y-88675106D01*
X130444792Y-88675104D01*
X130595104Y-88524792D01*
X130595106Y-88524788D01*
X130595109Y-88524786D01*
X130720048Y-88352820D01*
X130720047Y-88352820D01*
X130720051Y-88352816D01*
X130816557Y-88163412D01*
X130882246Y-87961243D01*
X130915500Y-87751287D01*
X130915500Y-87538713D01*
X130882246Y-87328757D01*
X130816557Y-87126588D01*
X130720051Y-86937184D01*
X130720049Y-86937181D01*
X130720048Y-86937179D01*
X130595109Y-86765213D01*
X130444786Y-86614890D01*
X130272820Y-86489951D01*
X130272115Y-86489591D01*
X130264054Y-86485485D01*
X130213259Y-86437512D01*
X130196463Y-86369692D01*
X130218999Y-86303556D01*
X130248921Y-86273639D01*
X130256160Y-86268537D01*
X130272816Y-86260051D01*
X130276123Y-86257648D01*
X140939500Y-86257648D01*
X140939500Y-86462351D01*
X140971522Y-86664534D01*
X141034781Y-86859223D01*
X141127715Y-87041613D01*
X141248028Y-87207213D01*
X141392786Y-87351971D01*
X141547749Y-87464556D01*
X141558390Y-87472287D01*
X141674607Y-87531503D01*
X141740776Y-87565218D01*
X141740778Y-87565218D01*
X141740781Y-87565220D01*
X141845137Y-87599127D01*
X141935465Y-87628477D01*
X142036557Y-87644488D01*
X142137648Y-87660500D01*
X142137649Y-87660500D01*
X142342351Y-87660500D01*
X142342352Y-87660500D01*
X142544534Y-87628477D01*
X142739219Y-87565220D01*
X142921610Y-87472287D01*
X143014590Y-87404732D01*
X143087213Y-87351971D01*
X143087215Y-87351968D01*
X143087219Y-87351966D01*
X143231966Y-87207219D01*
X143231968Y-87207215D01*
X143231971Y-87207213D01*
X143290547Y-87126588D01*
X143352287Y-87041610D01*
X143445220Y-86859219D01*
X143508477Y-86664534D01*
X143540500Y-86462352D01*
X143540500Y-86257648D01*
X143523755Y-86151925D01*
X143508477Y-86055465D01*
X143445218Y-85860776D01*
X143411503Y-85794607D01*
X143352287Y-85678390D01*
X143312345Y-85623414D01*
X143231971Y-85512786D01*
X143087213Y-85368028D01*
X142921613Y-85247715D01*
X142921612Y-85247714D01*
X142921610Y-85247713D01*
X142850118Y-85211286D01*
X142739223Y-85154781D01*
X142544534Y-85091522D01*
X142369995Y-85063878D01*
X142342352Y-85059500D01*
X142137648Y-85059500D01*
X142113329Y-85063351D01*
X141935465Y-85091522D01*
X141740776Y-85154781D01*
X141558386Y-85247715D01*
X141392786Y-85368028D01*
X141248028Y-85512786D01*
X141127715Y-85678386D01*
X141034781Y-85860776D01*
X140971522Y-86055465D01*
X140939500Y-86257648D01*
X130276123Y-86257648D01*
X130444792Y-86135104D01*
X130595104Y-85984792D01*
X130595106Y-85984788D01*
X130595109Y-85984786D01*
X130720048Y-85812820D01*
X130720047Y-85812820D01*
X130720051Y-85812816D01*
X130816557Y-85623412D01*
X130882246Y-85421243D01*
X130915500Y-85211287D01*
X130915500Y-84998713D01*
X130882246Y-84788757D01*
X130816557Y-84586588D01*
X130720051Y-84397184D01*
X130720049Y-84397181D01*
X130720048Y-84397179D01*
X130595109Y-84225213D01*
X130444786Y-84074890D01*
X130272820Y-83949951D01*
X130272115Y-83949591D01*
X130264054Y-83945485D01*
X130213259Y-83897512D01*
X130196463Y-83829692D01*
X130218999Y-83763556D01*
X130264054Y-83724515D01*
X130272816Y-83720051D01*
X130294789Y-83704086D01*
X130444786Y-83595109D01*
X130444788Y-83595106D01*
X130444792Y-83595104D01*
X130595104Y-83444792D01*
X130595106Y-83444788D01*
X130595109Y-83444786D01*
X130720048Y-83272820D01*
X130720047Y-83272820D01*
X130720051Y-83272816D01*
X130816557Y-83083412D01*
X130882246Y-82881243D01*
X130915500Y-82671287D01*
X130915500Y-82458713D01*
X130882246Y-82248757D01*
X130816557Y-82046588D01*
X130720051Y-81857184D01*
X130720049Y-81857181D01*
X130720048Y-81857179D01*
X130595109Y-81685213D01*
X130444786Y-81534890D01*
X130272820Y-81409951D01*
X130272115Y-81409591D01*
X130264054Y-81405485D01*
X130213259Y-81357512D01*
X130196463Y-81289692D01*
X130218999Y-81223556D01*
X130264054Y-81184515D01*
X130272816Y-81180051D01*
X130294789Y-81164086D01*
X130444786Y-81055109D01*
X130444788Y-81055106D01*
X130444792Y-81055104D01*
X130595104Y-80904792D01*
X130595106Y-80904788D01*
X130595109Y-80904786D01*
X130720048Y-80732820D01*
X130720047Y-80732820D01*
X130720051Y-80732816D01*
X130816557Y-80543412D01*
X130882246Y-80341243D01*
X130915500Y-80131287D01*
X130915500Y-79918713D01*
X130882246Y-79708757D01*
X130816557Y-79506588D01*
X130720051Y-79317184D01*
X130720049Y-79317181D01*
X130720048Y-79317179D01*
X130595109Y-79145213D01*
X130444786Y-78994890D01*
X130272820Y-78869951D01*
X130272115Y-78869591D01*
X130264054Y-78865485D01*
X130213259Y-78817512D01*
X130196463Y-78749692D01*
X130218999Y-78683556D01*
X130248921Y-78653639D01*
X130256160Y-78648537D01*
X130272816Y-78640051D01*
X130276123Y-78637648D01*
X140939500Y-78637648D01*
X140939500Y-78842351D01*
X140971522Y-79044534D01*
X141034781Y-79239223D01*
X141127715Y-79421613D01*
X141248028Y-79587213D01*
X141392786Y-79731971D01*
X141547749Y-79844556D01*
X141558390Y-79852287D01*
X141674607Y-79911503D01*
X141740776Y-79945218D01*
X141740778Y-79945218D01*
X141740781Y-79945220D01*
X141845137Y-79979127D01*
X141935465Y-80008477D01*
X142036557Y-80024488D01*
X142137648Y-80040500D01*
X142137649Y-80040500D01*
X142342351Y-80040500D01*
X142342352Y-80040500D01*
X142544534Y-80008477D01*
X142739219Y-79945220D01*
X142921610Y-79852287D01*
X143014590Y-79784732D01*
X143087213Y-79731971D01*
X143087215Y-79731968D01*
X143087219Y-79731966D01*
X143231966Y-79587219D01*
X143231968Y-79587215D01*
X143231971Y-79587213D01*
X143290547Y-79506588D01*
X143352287Y-79421610D01*
X143445220Y-79239219D01*
X143508477Y-79044534D01*
X143540500Y-78842352D01*
X143540500Y-78637648D01*
X143523755Y-78531925D01*
X143508477Y-78435465D01*
X143445218Y-78240776D01*
X143411503Y-78174607D01*
X143352287Y-78058390D01*
X143312345Y-78003414D01*
X143231971Y-77892786D01*
X143087213Y-77748028D01*
X142921613Y-77627715D01*
X142921612Y-77627714D01*
X142921610Y-77627713D01*
X142850118Y-77591286D01*
X142739223Y-77534781D01*
X142544534Y-77471522D01*
X142369995Y-77443878D01*
X142342352Y-77439500D01*
X142137648Y-77439500D01*
X142113329Y-77443351D01*
X141935465Y-77471522D01*
X141740776Y-77534781D01*
X141558386Y-77627715D01*
X141392786Y-77748028D01*
X141248028Y-77892786D01*
X141127715Y-78058386D01*
X141034781Y-78240776D01*
X140971522Y-78435465D01*
X140939500Y-78637648D01*
X130276123Y-78637648D01*
X130444792Y-78515104D01*
X130595104Y-78364792D01*
X130595106Y-78364788D01*
X130595109Y-78364786D01*
X130720048Y-78192820D01*
X130720047Y-78192820D01*
X130720051Y-78192816D01*
X130816557Y-78003412D01*
X130882246Y-77801243D01*
X130915500Y-77591287D01*
X130915500Y-77378713D01*
X130882246Y-77168757D01*
X130816557Y-76966588D01*
X130720051Y-76777184D01*
X130720049Y-76777181D01*
X130720048Y-76777179D01*
X130595109Y-76605213D01*
X130481569Y-76491673D01*
X130448084Y-76430350D01*
X130453068Y-76360658D01*
X130494940Y-76304725D01*
X130525915Y-76287810D01*
X130657331Y-76238796D01*
X130772546Y-76152546D01*
X130858796Y-76037331D01*
X130909091Y-75902483D01*
X130915500Y-75842873D01*
X130915499Y-74047128D01*
X130909091Y-73987517D01*
X130903829Y-73973410D01*
X130858797Y-73852671D01*
X130858793Y-73852664D01*
X130772547Y-73737455D01*
X130772544Y-73737452D01*
X130657335Y-73651206D01*
X130657328Y-73651202D01*
X130522482Y-73600908D01*
X130522483Y-73600908D01*
X130462883Y-73594501D01*
X130462881Y-73594500D01*
X130462873Y-73594500D01*
X130462864Y-73594500D01*
X128667129Y-73594500D01*
X128667123Y-73594501D01*
X128607516Y-73600908D01*
X128472671Y-73651202D01*
X128472664Y-73651206D01*
X128357455Y-73737452D01*
X128357452Y-73737455D01*
X128271206Y-73852664D01*
X128271202Y-73852671D01*
X128220908Y-73987517D01*
X128214501Y-74047116D01*
X128214500Y-74047128D01*
X113135499Y-74047128D01*
X113129091Y-73987517D01*
X113123829Y-73973410D01*
X113078797Y-73852671D01*
X113078793Y-73852664D01*
X112992547Y-73737455D01*
X112992544Y-73737452D01*
X112877335Y-73651206D01*
X112877328Y-73651202D01*
X112742482Y-73600908D01*
X112742483Y-73600908D01*
X112682883Y-73594501D01*
X112682881Y-73594500D01*
X112682873Y-73594500D01*
X112682864Y-73594500D01*
X110887129Y-73594500D01*
X110887123Y-73594501D01*
X110827516Y-73600908D01*
X110692671Y-73651202D01*
X110692664Y-73651206D01*
X110577455Y-73737452D01*
X110577452Y-73737455D01*
X110491206Y-73852664D01*
X110491202Y-73852671D01*
X110467032Y-73917476D01*
X110460942Y-73925611D01*
X110458605Y-73935502D01*
X110440357Y-73953110D01*
X110425161Y-73973410D01*
X110414300Y-73978253D01*
X110408326Y-73984018D01*
X110375043Y-73995760D01*
X110312775Y-74008146D01*
X110289566Y-74012763D01*
X110197756Y-74031025D01*
X110197748Y-74031027D01*
X110158878Y-74047128D01*
X110158877Y-74047128D01*
X110024776Y-74102673D01*
X110024763Y-74102680D01*
X109869092Y-74206697D01*
X109869088Y-74206700D01*
X105080900Y-78994890D01*
X103534092Y-80541698D01*
X103467894Y-80607896D01*
X103401696Y-80674093D01*
X103297680Y-80829763D01*
X103297673Y-80829776D01*
X103226027Y-81002748D01*
X103226024Y-81002757D01*
X103189500Y-81186378D01*
X103189500Y-81373621D01*
X103226024Y-81557242D01*
X103226027Y-81557251D01*
X103297673Y-81730223D01*
X103297680Y-81730236D01*
X103401697Y-81885907D01*
X103401700Y-81885911D01*
X105693181Y-84177391D01*
X105726666Y-84238714D01*
X105729500Y-84265072D01*
X105729500Y-103694928D01*
X105709815Y-103761967D01*
X105693181Y-103782609D01*
X95914092Y-113561698D01*
X94280700Y-115195088D01*
X94280697Y-115195092D01*
X94176680Y-115350763D01*
X94176673Y-115350776D01*
X94134705Y-115452097D01*
X94134705Y-115452099D01*
X94105459Y-115522709D01*
X94105439Y-115522757D01*
X94105025Y-115523754D01*
X94073320Y-115683149D01*
X94073314Y-115683183D01*
X94072963Y-115684949D01*
X94068500Y-115707384D01*
X91500500Y-115707384D01*
X91500500Y-105321995D01*
X94719500Y-105321995D01*
X94719500Y-105558004D01*
X94719501Y-105558020D01*
X94750306Y-105792010D01*
X94811394Y-106019993D01*
X94901714Y-106238045D01*
X94901719Y-106238056D01*
X94952752Y-106326446D01*
X95019727Y-106442450D01*
X95019729Y-106442453D01*
X95019730Y-106442454D01*
X95163406Y-106629697D01*
X95163412Y-106629704D01*
X95330295Y-106796587D01*
X95330301Y-106796592D01*
X95517550Y-106940273D01*
X95648918Y-107016118D01*
X95721943Y-107058280D01*
X95721948Y-107058282D01*
X95721951Y-107058284D01*
X95940007Y-107148606D01*
X96167986Y-107209693D01*
X96401989Y-107240500D01*
X96401996Y-107240500D01*
X96638004Y-107240500D01*
X96638011Y-107240500D01*
X96872014Y-107209693D01*
X97099993Y-107148606D01*
X97318049Y-107058284D01*
X97522450Y-106940273D01*
X97709699Y-106796592D01*
X97876592Y-106629699D01*
X98020273Y-106442450D01*
X98138284Y-106238049D01*
X98228606Y-106019993D01*
X98289693Y-105792014D01*
X98320500Y-105558011D01*
X98320500Y-105321989D01*
X98289693Y-105087986D01*
X98228606Y-104860007D01*
X98138284Y-104641951D01*
X98138282Y-104641948D01*
X98138280Y-104641943D01*
X98096118Y-104568918D01*
X98020273Y-104437550D01*
X97876592Y-104250301D01*
X97876587Y-104250295D01*
X97709704Y-104083412D01*
X97709697Y-104083406D01*
X97522454Y-103939730D01*
X97522453Y-103939729D01*
X97522450Y-103939727D01*
X97440957Y-103892677D01*
X97318056Y-103821719D01*
X97318045Y-103821714D01*
X97099993Y-103731394D01*
X97062270Y-103721286D01*
X96872014Y-103670307D01*
X96872013Y-103670306D01*
X96872010Y-103670306D01*
X96638020Y-103639501D01*
X96638017Y-103639500D01*
X96638011Y-103639500D01*
X96401989Y-103639500D01*
X96401983Y-103639500D01*
X96401979Y-103639501D01*
X96167989Y-103670306D01*
X95940006Y-103731394D01*
X95721954Y-103821714D01*
X95721943Y-103821719D01*
X95517545Y-103939730D01*
X95330302Y-104083406D01*
X95330295Y-104083412D01*
X95163412Y-104250295D01*
X95163406Y-104250302D01*
X95019730Y-104437545D01*
X94901719Y-104641943D01*
X94901714Y-104641954D01*
X94811394Y-104860006D01*
X94750306Y-105087989D01*
X94719501Y-105321979D01*
X94719500Y-105321995D01*
X91500500Y-105321995D01*
X91500500Y-99259983D01*
X94719500Y-99259983D01*
X94719500Y-101460001D01*
X94719501Y-101460018D01*
X94730000Y-101562796D01*
X94730001Y-101562799D01*
X94785185Y-101729331D01*
X94785186Y-101729334D01*
X94877288Y-101878656D01*
X95001344Y-102002712D01*
X95150666Y-102094814D01*
X95317203Y-102149999D01*
X95419991Y-102160500D01*
X97620008Y-102160499D01*
X97722797Y-102149999D01*
X97889334Y-102094814D01*
X98038656Y-102002712D01*
X98162712Y-101878656D01*
X98254814Y-101729334D01*
X98309999Y-101562797D01*
X98320500Y-101460009D01*
X98320499Y-99259992D01*
X98309999Y-99157203D01*
X98254814Y-98990666D01*
X98162712Y-98841344D01*
X98038656Y-98717288D01*
X97889334Y-98625186D01*
X97722797Y-98570001D01*
X97722795Y-98570000D01*
X97620010Y-98559500D01*
X95419998Y-98559500D01*
X95419981Y-98559501D01*
X95317203Y-98570000D01*
X95317200Y-98570001D01*
X95150668Y-98625185D01*
X95150663Y-98625187D01*
X95001342Y-98717289D01*
X94877289Y-98841342D01*
X94785187Y-98990663D01*
X94785186Y-98990666D01*
X94730001Y-99157203D01*
X94730001Y-99157204D01*
X94730000Y-99157204D01*
X94719500Y-99259983D01*
X91500500Y-99259983D01*
X91500500Y-70222155D01*
X151050000Y-70222155D01*
X151050000Y-70870000D01*
X151966988Y-70870000D01*
X151934075Y-70927007D01*
X151900000Y-71054174D01*
X151900000Y-71185826D01*
X151934075Y-71312993D01*
X151966988Y-71370000D01*
X151050000Y-71370000D01*
X151050000Y-72017844D01*
X151056401Y-72077372D01*
X151056403Y-72077379D01*
X151106645Y-72212086D01*
X151106649Y-72212093D01*
X151192809Y-72327187D01*
X151192812Y-72327190D01*
X151307906Y-72413350D01*
X151307913Y-72413354D01*
X151442620Y-72463596D01*
X151442627Y-72463598D01*
X151502155Y-72469999D01*
X151502172Y-72470000D01*
X152150000Y-72470000D01*
X152150000Y-71553012D01*
X152207007Y-71585925D01*
X152334174Y-71620000D01*
X152465826Y-71620000D01*
X152592993Y-71585925D01*
X152650000Y-71553012D01*
X152650000Y-72470000D01*
X153297828Y-72470000D01*
X153297844Y-72469999D01*
X153357372Y-72463598D01*
X153357379Y-72463596D01*
X153492086Y-72413354D01*
X153492093Y-72413350D01*
X153607187Y-72327190D01*
X153607190Y-72327187D01*
X153693350Y-72212093D01*
X153693354Y-72212086D01*
X153743596Y-72077379D01*
X153743598Y-72077372D01*
X153749999Y-72017844D01*
X153750000Y-72017827D01*
X153750000Y-71370000D01*
X152833012Y-71370000D01*
X152865925Y-71312993D01*
X152900000Y-71185826D01*
X152900000Y-71054174D01*
X152865925Y-70927007D01*
X152833012Y-70870000D01*
X153750000Y-70870000D01*
X153750000Y-70222172D01*
X153749999Y-70222155D01*
X191690000Y-70222155D01*
X191690000Y-70870000D01*
X192606988Y-70870000D01*
X192574075Y-70927007D01*
X192540000Y-71054174D01*
X192540000Y-71185826D01*
X192574075Y-71312993D01*
X192606988Y-71370000D01*
X191690000Y-71370000D01*
X191690000Y-72017844D01*
X191696401Y-72077372D01*
X191696403Y-72077379D01*
X191746645Y-72212086D01*
X191746649Y-72212093D01*
X191832809Y-72327187D01*
X191832812Y-72327190D01*
X191947906Y-72413350D01*
X191947913Y-72413354D01*
X192082620Y-72463596D01*
X192082627Y-72463598D01*
X192142155Y-72469999D01*
X192142172Y-72470000D01*
X192790000Y-72470000D01*
X192790000Y-71553012D01*
X192847007Y-71585925D01*
X192974174Y-71620000D01*
X193105826Y-71620000D01*
X193232993Y-71585925D01*
X193290000Y-71553012D01*
X193290000Y-72470000D01*
X193937828Y-72470000D01*
X193937844Y-72469999D01*
X193997372Y-72463598D01*
X193997379Y-72463596D01*
X194132086Y-72413354D01*
X194132093Y-72413350D01*
X194247187Y-72327190D01*
X194247190Y-72327187D01*
X194333350Y-72212093D01*
X194333354Y-72212086D01*
X194383596Y-72077379D01*
X194383598Y-72077372D01*
X194389999Y-72017844D01*
X194390000Y-72017827D01*
X194390000Y-71370000D01*
X193473012Y-71370000D01*
X193505925Y-71312993D01*
X193540000Y-71185826D01*
X193540000Y-71054174D01*
X193505925Y-70927007D01*
X193473012Y-70870000D01*
X194390000Y-70870000D01*
X194390000Y-70222172D01*
X194389999Y-70222155D01*
X194383598Y-70162627D01*
X194383596Y-70162620D01*
X194333354Y-70027913D01*
X194333350Y-70027906D01*
X194247190Y-69912812D01*
X194247187Y-69912809D01*
X194132093Y-69826649D01*
X194132086Y-69826645D01*
X193997379Y-69776403D01*
X193997372Y-69776401D01*
X193937844Y-69770000D01*
X193290000Y-69770000D01*
X193290000Y-70686988D01*
X193232993Y-70654075D01*
X193105826Y-70620000D01*
X192974174Y-70620000D01*
X192847007Y-70654075D01*
X192790000Y-70686988D01*
X192790000Y-69770000D01*
X192142155Y-69770000D01*
X192082627Y-69776401D01*
X192082620Y-69776403D01*
X191947913Y-69826645D01*
X191947906Y-69826649D01*
X191832812Y-69912809D01*
X191832809Y-69912812D01*
X191746649Y-70027906D01*
X191746645Y-70027913D01*
X191696403Y-70162620D01*
X191696401Y-70162627D01*
X191690000Y-70222155D01*
X153749999Y-70222155D01*
X153743598Y-70162627D01*
X153743596Y-70162620D01*
X153693354Y-70027913D01*
X153693350Y-70027906D01*
X153607190Y-69912812D01*
X153607187Y-69912809D01*
X153492093Y-69826649D01*
X153492086Y-69826645D01*
X153357379Y-69776403D01*
X153357372Y-69776401D01*
X153297844Y-69770000D01*
X152650000Y-69770000D01*
X152650000Y-70686988D01*
X152592993Y-70654075D01*
X152465826Y-70620000D01*
X152334174Y-70620000D01*
X152207007Y-70654075D01*
X152150000Y-70686988D01*
X152150000Y-69770000D01*
X151502155Y-69770000D01*
X151442627Y-69776401D01*
X151442620Y-69776403D01*
X151307913Y-69826645D01*
X151307906Y-69826649D01*
X151192812Y-69912809D01*
X151192809Y-69912812D01*
X151106649Y-70027906D01*
X151106645Y-70027913D01*
X151056403Y-70162620D01*
X151056401Y-70162627D01*
X151050000Y-70222155D01*
X91500500Y-70222155D01*
X91500500Y-65624500D01*
X91520185Y-65557461D01*
X91572989Y-65511706D01*
X91624500Y-65500500D01*
X210375500Y-65500500D01*
X210442539Y-65520185D01*
G37*
%TD.AperFunction*%
%TD*%
M02*
