M48
; DRILL file {KiCad 9.0.7} date 2026-03-06T01:41:10+0300
; FORMAT={-:-/ absolute / metric / decimal}
; #@! TF.CreationDate,2026-03-06T01:41:10+03:00
; #@! TF.GenerationSoftware,Kicad,Pcbnew,9.0.7
; #@! TF.FileFunction,Plated,1,2,PTH
FMAT,2
METRIC
; #@! TA.AperFunction,Plated,PTH,ComponentDrill
T1C0.800
; #@! TA.AperFunction,Plated,PTH,ComponentDrill
T2C0.950
; #@! TA.AperFunction,Plated,PTH,ComponentDrill
T3C1.000
; #@! TA.AperFunction,Plated,PTH,ComponentDrill
T4C1.300
; #@! TA.AperFunction,Plated,PTH,ComponentDrill
T5C3.200
%
G90
G05
T1
X132.08Y-109.22
X135.58Y-109.22
X142.24Y-78.74
X142.24Y-86.36
T2
X119.38Y-127.0
X119.38Y-129.5
X119.38Y-132.0
X119.38Y-134.5
X119.38Y-137.0
X119.38Y-139.5
T3
X111.785Y-74.945
X111.785Y-77.485
X111.785Y-80.025
X111.785Y-82.565
X111.785Y-85.105
X111.785Y-87.645
X111.785Y-90.185
X111.785Y-92.725
X129.565Y-74.945
X129.565Y-77.485
X129.565Y-80.025
X129.565Y-82.565
X129.565Y-85.105
X129.565Y-87.645
X129.565Y-90.185
X129.565Y-92.725
X152.4Y-71.12
X152.4Y-88.9
X160.02Y-109.22
X160.02Y-111.76
X160.02Y-114.3
X160.02Y-116.84
X160.02Y-119.38
X160.02Y-121.92
X160.02Y-124.46
X160.02Y-127.0
X182.88Y-109.22
X182.88Y-111.76
X182.88Y-114.3
X182.88Y-116.84
X182.88Y-119.38
X182.88Y-121.92
X182.88Y-124.46
X182.88Y-127.0
X193.04Y-71.12
X193.04Y-88.9
X200.66Y-104.14
X200.66Y-106.68
X200.66Y-109.22
T4
X96.52Y-100.36
X96.52Y-105.44
X203.2Y-124.46
X203.2Y-129.54
T5
X96.52Y-71.12
X96.52Y-139.7
X205.74Y-71.12
X205.74Y-139.7
M30
